<svg xmlns="http://www.w3.org/2000/svg" viewBox="0 0 18 18"><defs><style>.cls-1{fill:#d9e9e9;}.cls-2{fill:#f37676;}</style></defs><path class="cls-1" d="M18,9a8.92955,8.92955,0,0,1-3.5,7.11,8.86547,8.86547,0,0,1-4.95,1.87c-.18.01-.36.02-.55.02s-.37-.01-.55005-.02A8.86528,8.86528,0,0,1,3.5,16.11,8.99542,8.99542,0,1,1,18,9Z"/><rect class="cls-2" x="3.49998" y="3.50002" width="5" height="7" rx="0.78625"/><rect class="cls-2" x="9.49998" y="3.50002" width="5" height="7" rx="0.78625"/><path class="cls-2" d="M8.5,12.29v5.42a.7625.7625,0,0,1-.05005.27A8.86528,8.86528,0,0,1,3.5,16.11V12.29a.78532.78532,0,0,1,.79-.79H7.71A.78537.78537,0,0,1,8.5,12.29Z"/><path class="cls-2" d="M14.5,12.29v3.82a8.86547,8.86547,0,0,1-4.95,1.87.76251.76251,0,0,1-.05-.27V12.29a.78532.78532,0,0,1,.79-.79h3.42A.78537.78537,0,0,1,14.5,12.29Z"/></svg>