<svg id="Слой_1" data-name="Слой 1" xmlns="http://www.w3.org/2000/svg" viewBox="0 0 18 18"><defs><style>.cls-1{fill:#d80027;}.cls-2{fill:#f0f0f0;}.cls-3{fill:#2e52b2;}</style></defs><title>en</title><path class="cls-1" d="M14.93,15.75a4.8296,4.8296,0,0,1-.43.36,8.86547,8.86547,0,0,1-4.95,1.87c-.18.01-.36.02-.55.02s-.37-.01-.55-.02A8.8653,8.8653,0,0,1,3.5,16.11a4.8296,4.8296,0,0,1-.43-.36Z"/><path class="cls-1" d="M17.71,11.25a8.85042,8.85042,0,0,1-.91,2.25H1.2a8.85042,8.85042,0,0,1-.91-2.25Z"/><path class="cls-2" d="M1.2,13.5H16.8a8.835,8.835,0,0,1-1.87,2.25H3.07A8.835,8.835,0,0,1,1.2,13.5Z"/><path class="cls-1" d="M18,9H9V6.75h8.72A9.24219,9.24219,0,0,1,18,9Z"/><path class="cls-1" d="M16.79,4.5H9V2.25h5.94A8.72278,8.72278,0,0,1,16.79,4.5Z"/><path class="cls-2" d="M14.94,2.25H9V0A8.94492,8.94492,0,0,1,14.94,2.25Z"/><path class="cls-2" d="M17.72,6.75H9V4.5h7.79A8.89632,8.89632,0,0,1,17.72,6.75Z"/><path class="cls-3" d="M3.52,2.23H3.08a6.99831,6.99831,0,0,1,.6-.48Z"/><path class="cls-3" d="M3.78,1.68l.17.55h.71l-.57.41L4.31,3.31l-.57-.42005L3.17,3.31l.21-.67005-.41-.3A8.55153,8.55153,0,0,0,1.21,4.5c-.03.05-.05005.09-.08.13995h.55l-.56.41.21.67L.79,5.33A8.56348,8.56348,0,0,0,.28,6.75c-.02.1-.05.2-.06995.3H.55l.21-.67.22.67h.7l-.56.42.21.67L.76,7.72.2,8.14l.21-.67L.16,7.29A9.53934,9.53934,0,0,0,0,9q0,.345.03.69H9V0A8.90743,8.90743,0,0,0,3.78,1.68Zm.53,6.46-.57-.42-.57.42.21-.67-.56-.42h.7l.22-.67.21.67h.71l-.57.42ZM4.09,5.05l.22.67-.57-.41-.57.41.21-.67-.56-.41h.7l.22-.67.21.67h.71ZM7.28,8.14,6.71,7.72l-.57.42.22-.67-.57-.42h.7l.22-.67.22.67h.7l-.57.42ZM7.06,5.05l.22.67L6.71,5.31l-.57.41.22-.67-.57-.41h.7l.22-.67.22.67h.7Zm0-2.41L7.28,3.31,6.71,2.88995,6.14,3.31l.22-.67005-.57-.41h.7l.22-.67.22.67h.7Z"/><path class="cls-2" d="M4.09,2.63995,4.31,3.31l-.57-.42005L3.17,3.31l.21-.67005-.41-.3a.76266.76266,0,0,1,.09-.09l.02-.02h.44l.16-.48c.03-.02.07-.05.1-.07l.17.55h.71Z"/><polygon class="cls-2" points="7.06 2.64 7.28 3.31 6.71 2.89 6.14 3.31 6.36 2.64 5.79 2.23 6.49 2.23 6.71 1.56 6.93 2.23 7.63 2.23 7.06 2.64"/><path class="cls-2" d="M1.12,7.47l.21.67L.76,7.72.2,8.14l.21-.67L.16,7.29c.02-.08.03-.16.05005-.24H.55l.21-.67.22.67h.7Z"/><path class="cls-2" d="M1.12,5.05l.21.67L.79,5.33a5.53134,5.53134,0,0,1,.34-.69h.55Z"/><polygon class="cls-2" points="4.09 5.05 4.31 5.72 3.74 5.31 3.17 5.72 3.38 5.05 2.82 4.64 3.52 4.64 3.74 3.97 3.95 4.64 4.66 4.64 4.09 5.05"/><polygon class="cls-2" points="4.09 7.47 4.31 8.14 3.74 7.72 3.17 8.14 3.38 7.47 2.82 7.05 3.52 7.05 3.74 6.38 3.95 7.05 4.66 7.05 4.09 7.47"/><polygon class="cls-2" points="7.06 7.47 7.28 8.14 6.71 7.72 6.14 8.14 6.36 7.47 5.79 7.05 6.49 7.05 6.71 6.38 6.93 7.05 7.63 7.05 7.06 7.47"/><polygon class="cls-2" points="7.06 5.05 7.28 5.72 6.71 5.31 6.14 5.72 6.36 5.05 5.79 4.64 6.49 4.64 6.71 3.97 6.93 4.64 7.63 4.64 7.06 5.05"/><path class="cls-2" d="M18,9a8.7837,8.7837,0,0,1-.29,2.25H.29A9.07686,9.07686,0,0,1,.03,9.69H9V9Z"/></svg>