<svg xmlns="http://www.w3.org/2000/svg" viewBox="0 0 18 18"><defs><style>.cls-1{fill:#d8d8d8;}.cls-2{fill:#c1c1c1;}.cls-3{fill:#e8e8e8;}.cls-4{fill:#ebebeb;}.cls-5{fill:#dfdfdf;}</style></defs><circle class="cls-1" cx="9" cy="9" r="9"/><path class="cls-2" d="M9,17.57143A8.99816,8.99816,0,0,1,.00541,8.78571C.00374,8.85718,0,8.92813,0,9A9,9,0,0,0,18,9c0-.07187-.00374-.14282-.00541-.21429A8.99816,8.99816,0,0,1,9,17.57143Z"/><path class="cls-3" d="M.01578,9A8.99416,8.99416,0,0,1,17.98422,9c.00335-.07144.00868-.14238.01037-.21424a8.99707,8.99707,0,0,0-17.98918,0C.0071,8.85762.01243,8.92856.01578,9Z"/><circle class="cls-4" cx="5.30619" cy="7.28143" r="1.65476"/><path class="cls-5" d="M3.778,7.43539A1.65306,1.65306,0,0,1,6.645,6.31164,1.65321,1.65321,0,1,0,4.094,8.40521,1.64522,1.64522,0,0,1,3.778,7.43539Z"/><path class="cls-4" d="M7.73476,6.81714a.77381.77381,0,1,1,.77381-.7738A.7738.7738,0,0,1,7.73476,6.81714Z"/><path class="cls-5" d="M7.02016,6.11534a.773.773,0,0,1,1.34067-.5255.77308.77308,0,1,0-1.19292.979A.76934.76934,0,0,1,7.02016,6.11534Z"/><path class="cls-4" d="M12.44528,11.284a1.71495,1.71495,0,1,1-1.17056,2.12414A1.71494,1.71494,0,0,1,12.44528,11.284Z"/><path class="cls-5" d="M14.399,12.33775a1.71319,1.71319,0,0,1-2.5303,1.94478,1.71334,1.71334,0,1,0,1.9363-2.81921A1.70486,1.70486,0,0,1,14.399,12.33775Z"/><path class="cls-4" d="M8.58267,10.6166a.85748.85748,0,1,1-.58526,1.06208A.8575.8575,0,0,1,8.58267,10.6166Z"/><path class="cls-5" d="M9.55956,11.14348a.8566.8566,0,0,1-1.26518.97239.85667.85667,0,1,0,.96817-1.4096A.85248.85248,0,0,1,9.55956,11.14348Z"/></svg>