<?xml version="1.0" standalone="no"?>
<!DOCTYPE svg PUBLIC "-//W3C//DTD SVG 20010904//EN"
 "http://www.w3.org/TR/2001/REC-SVG-20010904/DTD/svg10.dtd">
<svg version="1.0" xmlns="http://www.w3.org/2000/svg"
 width="834.000000pt" height="834.000000pt" viewBox="0 0 834.000000 834.000000"
 preserveAspectRatio="xMidYMid meet">
<metadata>
Created by potrace 1.14, written by Peter Selinger 2001-2017
</metadata>
<g transform="translate(0.000000,834.000000) scale(0.100000,-0.100000)"
fill="#000000" stroke="none">
<path d="M5089 6726 c-3 -3 -20 -8 -38 -11 -56 -10 -141 -43 -200 -77 -91 -53
-209 -179 -259 -275 -24 -46 -42 -84 -41 -85 0 -2 -4 -22 -10 -45 -6 -23 -14
-61 -18 -85 -9 -55 -8 -3933 0 -3973 4 -16 9 -43 12 -58 12 -61 64 -171 114
-237 45 -60 64 -81 126 -130 73 -58 136 -90 235 -121 l75 -24 1243 -1 c1168
-1 1249 0 1325 17 217 48 412 214 486 414 50 134 49 67 49 2128 0 1063 -4
1955 -8 1982 -47 272 -203 457 -470 556 l-65 24 -1276 3 c-701 1 -1278 0
-1280 -2z m2546 -42 c166 -37 315 -138 411 -279 45 -65 93 -190 101 -263 4
-31 7 -930 7 -1997 1 -1867 0 -1943 -18 -2010 -35 -130 -81 -211 -177 -307
-48 -48 -94 -88 -102 -88 -9 0 -17 -4 -19 -8 -5 -14 -109 -59 -178 -78 -60
-16 -154 -17 -1295 -18 -1283 -2 -1267 -2 -1391 40 -104 35 -225 125 -294 219
-32 44 -103 170 -99 177 1 2 -4 21 -9 43 -6 22 -14 54 -17 70 -3 17 -5 910 -6
1985 0 1916 0 1957 20 2031 33 129 77 207 169 303 55 57 156 124 227 151 114
43 118 43 1385 44 1057 0 1224 -2 1285 -15z"/>
<path d="M6350 5732 c-27 -9 -38 -28 -43 -73 -2 -24 -14 -73 -25 -109 -26 -81
-41 -145 -49 -219 -10 -78 -10 -292 0 -374 9 -68 9 -68 -15 -62 -12 3 -34 7
-48 7 -14 1 -49 15 -77 31 -46 25 -60 28 -108 23 -30 -3 -64 -10 -74 -15 -10
-6 -74 -13 -142 -15 -68 -3 -137 -8 -154 -11 -221 -42 -392 -145 -487 -295
-114 -179 -162 -465 -135 -800 23 -282 117 -563 262 -779 65 -98 78 -113 151
-185 108 -107 224 -162 399 -189 106 -17 334 -12 438 9 100 20 153 16 279 -20
150 -43 214 -56 282 -57 262 -4 532 202 676 516 65 140 142 353 165 455 1 8 8
33 14 55 6 22 13 58 17 80 3 22 8 43 11 47 12 21 30 237 28 343 -8 391 -130
674 -331 769 -97 46 -180 59 -335 52 l-136 -5 -12 38 c-17 60 -82 126 -135
140 -61 15 -77 14 -140 -10 -57 -21 -147 -98 -201 -172 -22 -30 -34 -37 -54
-35 -25 3 -26 5 -23 63 5 115 35 239 82 341 81 177 114 256 128 309 15 58 15
64 -1 88 -24 36 -160 75 -207 59z m433 -704 c29 -15 55 -45 78 -90 l18 -36
-52 -7 c-28 -4 -63 -8 -77 -10 -61 -9 -130 -16 -188 -20 -57 -3 -61 -2 -53 14
18 32 116 113 166 137 56 27 77 29 108 12z"/>
<path d="M722 6708 c-271 -42 -501 -269 -551 -543 -8 -42 -11 -639 -11 -2005
1 -2137 -3 -2006 60 -2147 96 -213 276 -349 516 -389 21 -4 590 -7 1264 -6
1197 0 1227 1 1302 20 241 64 431 258 484 493 17 77 19 309 18 2069 0 1829 -1
1939 -18 2005 -10 39 -22 75 -26 80 -3 6 -13 26 -20 45 -33 86 -152 225 -237
277 -55 34 -134 70 -184 83 -24 7 -53 15 -64 18 -32 9 -2475 9 -2533 0z"/>
</g>
</svg>
