<?xml version="1.0" standalone="no"?>
<!DOCTYPE svg PUBLIC "-//W3C//DTD SVG 20010904//EN"
 "http://www.w3.org/TR/2001/REC-SVG-20010904/DTD/svg10.dtd">
<svg version="1.0" xmlns="http://www.w3.org/2000/svg"
 width="800.000000pt" height="800.000000pt" viewBox="0 0 800.000000 800.000000"
 preserveAspectRatio="xMidYMid meet">
<metadata>
Created by potrace 1.14, written by Peter Selinger 2001-2017
</metadata>
<g transform="translate(0.000000,800.000000) scale(0.100000,-0.100000)"
fill="#000000" stroke="none">
<path d="M2355 6489 c-22 -5 -53 -10 -70 -13 -123 -20 -287 -117 -395 -233
-182 -199 -245 -462 -175 -733 17 -64 53 -151 67 -160 4 -3 1 -17 -6 -30 -31
-60 -81 -145 -86 -150 -4 -3 -13 -18 -22 -35 -8 -16 -25 -48 -38 -70 -13 -22
-31 -53 -40 -70 -9 -16 -23 -41 -31 -55 -16 -25 -148 -252 -188 -322 -11 -21
-29 -53 -40 -70 -10 -18 -45 -78 -76 -133 -32 -55 -65 -113 -75 -130 -22 -38
-86 -149 -112 -195 -11 -19 -41 -71 -67 -115 -26 -44 -50 -87 -54 -95 -4 -8
-16 -28 -26 -45 -11 -16 -28 -46 -39 -65 -40 -73 -62 -110 -86 -149 -15 -22
-26 -42 -26 -45 0 -2 -18 -34 -40 -71 -23 -36 -45 -77 -50 -91 -5 -13 -15 -24
-21 -24 -7 0 -10 -3 -7 -6 4 -3 -14 -38 -38 -77 -24 -40 -52 -89 -61 -109 -10
-21 -21 -38 -25 -38 -5 0 -8 -4 -8 -10 0 -5 -36 -70 -80 -146 -44 -75 -80
-140 -80 -144 0 -5 -3 -10 -7 -12 -5 -1 -16 -19 -26 -38 -31 -62 -83 -150 -95
-162 -7 -7 -12 -16 -12 -20 0 -4 -30 -58 -67 -120 -122 -205 -151 -288 -151
-423 0 -167 68 -320 189 -428 76 -67 88 -77 94 -77 3 0 18 -6 33 -14 160 -83
391 -79 543 9 74 43 81 48 135 102 46 46 104 132 171 253 11 19 64 112 118
205 54 94 129 224 167 290 37 66 73 127 78 135 5 8 22 38 38 65 103 181 215
372 224 383 6 6 7 12 2 12 -5 0 -4 4 2 8 5 4 57 88 114 187 57 99 111 194 121
210 10 17 26 46 36 65 9 19 20 37 23 40 5 5 111 186 200 345 103 183 164 285
170 285 3 0 28 -37 53 -82 26 -46 59 -103 74 -128 14 -25 35 -61 46 -80 11
-19 28 -48 38 -65 11 -16 22 -37 26 -45 7 -14 82 -147 103 -180 13 -23 145
-250 168 -290 62 -111 262 -457 269 -465 4 -5 14 -21 21 -35 7 -14 25 -47 41
-75 27 -46 28 -51 14 -67 -9 -10 -13 -18 -10 -18 3 0 -7 -28 -23 -63 -15 -34
-31 -76 -33 -92 -21 -111 -24 -146 -21 -228 1 -51 7 -105 13 -120 6 -15 10
-31 9 -35 -4 -12 23 -85 55 -152 100 -206 296 -363 522 -417 122 -29 289 -22
413 18 230 74 413 253 498 489 8 25 18 59 21 75 3 17 8 49 13 73 10 54 5 203
-9 264 -13 57 -57 175 -75 203 -12 18 -5 34 62 150 133 229 182 317 182 325 0
5 4 10 8 12 4 2 48 73 96 158 151 263 290 504 365 630 30 52 56 97 56 100 0 3
12 23 26 45 13 22 31 52 38 68 18 35 26 34 43 -3 7 -16 16 -30 20 -30 5 0 8
-4 8 -10 0 -5 19 -42 43 -82 24 -40 46 -80 50 -88 4 -8 15 -28 26 -45 32 -54
218 -374 272 -470 18 -33 37 -61 41 -63 4 -2 8 -7 8 -12 0 -4 41 -79 91 -166
50 -88 99 -172 109 -189 9 -16 32 -57 50 -90 19 -33 41 -71 50 -85 10 -14 30
-47 45 -75 16 -27 38 -67 49 -87 101 -178 292 -507 304 -520 8 -10 12 -18 8
-18 -3 0 5 -17 18 -37 13 -21 62 -103 109 -183 114 -192 173 -255 302 -318 80
-39 153 -55 250 -55 116 0 162 11 275 66 71 35 198 153 221 206 8 17 18 31 22
31 5 0 6 4 2 9 -3 5 1 16 10 24 8 8 16 25 19 38 3 13 11 48 19 78 19 68 15
218 -7 287 -18 56 -46 119 -79 176 -51 86 -299 513 -327 564 -94 166 -116 204
-135 234 -13 19 -52 87 -88 150 -36 63 -110 192 -164 286 -55 94 -103 177
-106 185 -4 8 -15 28 -26 44 -53 86 -131 226 -131 235 0 5 -4 10 -10 10 -5 0
-10 5 -10 10 0 6 -27 55 -60 110 -33 55 -60 103 -60 106 0 4 -6 15 -14 23 -7
9 -27 41 -43 71 -17 30 -80 142 -142 248 -61 106 -120 207 -130 225 -50 88
-215 374 -226 389 -10 15 -6 28 17 75 32 66 49 123 66 213 8 44 6 224 -3 269
-18 91 -84 248 -122 289 -7 7 -13 17 -13 21 0 11 -159 171 -170 171 -5 0 -15
6 -22 13 -13 12 -146 80 -183 92 -76 26 -156 39 -255 39 -168 0 -283 -35 -432
-132 -38 -24 -68 -48 -68 -53 0 -5 -4 -9 -10 -9 -23 0 -140 -146 -177 -221
-26 -52 -55 -123 -59 -143 -2 -12 -6 -32 -9 -46 -16 -71 -21 -122 -18 -195 2
-69 8 -120 13 -120 1 0 3 -15 6 -33 2 -18 9 -42 14 -53 6 -10 8 -19 4 -19 -3
0 -2 -6 3 -12 6 -7 13 -25 17 -40 3 -16 11 -28 16 -28 6 0 10 -9 10 -19 0 -11
4 -22 9 -25 9 -6 -14 -65 -29 -76 -4 -3 -13 -20 -21 -37 -8 -18 -17 -33 -21
-33 -5 0 -8 -4 -8 -9 0 -13 -82 -155 -92 -159 -4 -2 -8 -8 -8 -13 0 -7 -249
-446 -300 -529 -8 -13 -98 -169 -205 -355 -16 -28 -61 -107 -100 -173 -38 -67
-72 -122 -75 -122 -6 1 -184 309 -188 327 -2 7 -8 13 -13 13 -5 0 -9 4 -9 10
0 5 -20 44 -45 86 -25 41 -45 77 -45 79 0 3 -26 48 -58 102 -52 86 -262 448
-312 538 -10 18 -24 43 -32 56 -7 13 -15 26 -18 29 -3 3 -12 19 -21 35 -9 17
-42 74 -73 129 -32 54 -53 102 -48 105 11 7 45 86 67 156 67 216 21 480 -117
670 -117 162 -305 279 -498 311 -64 10 -188 12 -235 3z"/>
</g>
</svg>
