<svg xmlns="http://www.w3.org/2000/svg" xmlns:xlink="http://www.w3.org/1999/xlink" viewBox="0 0 100 63.5"><defs><style>.cls-1{fill:url(#linear-gradient);}.cls-2{fill:url(#linear-gradient-2);}.cls-3{fill:url(#linear-gradient-3);}.cls-4{fill:url(#linear-gradient-4);}.cls-5{fill:url(#linear-gradient-5);}.cls-6{fill:url(#linear-gradient-6);}</style><linearGradient id="linear-gradient" x1="65.48076" y1="8.22496" x2="97.28154" y2="63.98512" gradientUnits="userSpaceOnUse"><stop offset="0" stop-color="#081ae0"/><stop offset="1" stop-color="#02e8ca"/></linearGradient><linearGradient id="linear-gradient-2" x1="26.89662" y1="8.09377" x2="60.58184" y2="67.15816" xlink:href="#linear-gradient"/><linearGradient id="linear-gradient-3" x1="50.54406" y1="15.80767" x2="68.89324" y2="47.9815" gradientUnits="userSpaceOnUse"><stop offset="0" stop-color="#08a5fd"/><stop offset="1" stop-color="#02e8ca"/></linearGradient><linearGradient id="linear-gradient-4" x1="36.56643" y1="60.80264" x2="67.27049" y2="13.12655" xlink:href="#linear-gradient-3"/><linearGradient id="linear-gradient-5" x1="10.91779" y1="16.32215" x2="28.80572" y2="47.68722" xlink:href="#linear-gradient-3"/><linearGradient id="linear-gradient-6" x1="-4.64598" y1="62.35878" x2="30.06444" y2="13.06582" xlink:href="#linear-gradient-3"/></defs><title>m-logo</title><path class="cls-1" d="M92.7028,62.96219h-.00008a7.28629,7.28629,0,0,1-6.30956-3.64225L60.85976,15.11065A9.71441,9.71441,0,0,1,69.27191.53781h0L99.01236,52.03166A7.28635,7.28635,0,0,1,92.7028,62.96219Z"/><path class="cls-2" d="M50.0005,62.96219h0L22.36357,15.11065A9.71438,9.71438,0,0,1,30.77572.53781h0L58.41264,48.38942A9.71435,9.71435,0,0,1,50.0005,62.96219Z"/><path class="cls-3" d="M77.65643,15.108,50.02162,62.9616a9.57857,9.57857,0,0,1-6.879-2.85268A9.67634,9.67634,0,0,1,41.607,48.39205L69.248.5384A9.69037,9.69037,0,0,1,77.65643,15.108Z"/><path class="cls-4" d="M72.45655,9.39,43.14263,60.10892A9.67634,9.67634,0,0,1,41.607,48.39205L69.248.5384l.04341.00015a4.54788,4.54788,0,0,1,4.417,5.10611A9.73694,9.73694,0,0,1,72.45655,9.39Z"/><path class="cls-5" d="M39.14131,15.108,13.604,59.32236A7.312,7.312,0,0,1,3.73482,62.044c-.19968-.11234-.39943-.23724-.58675-.36829A7.288,7.288,0,0,1,.98826,52.0313L30.72668.5384h.06241c.08734,0,.17475.00629.26217.00629A9.494,9.494,0,0,1,36.0576,2.124,9.711,9.711,0,0,1,39.14131,15.108Z"/><path class="cls-6" d="M35.18369,7.5985c-.10611.22467-.22481.44313-.34957.66166L5.33287,59.32236c-.21224.36828-.9301,1.63547-1.598,2.72163-.19968-.11234-.39943-.23724-.58675-.36829A7.288,7.288,0,0,1,.98826,52.0313L30.72668.5384h.06241c.08734,0,.17475.00629.26217.00629A4.9625,4.9625,0,0,1,35.18369,7.5985Z"/></svg>