<svg id="Слой_1" data-name="Слой 1" xmlns="http://www.w3.org/2000/svg" viewBox="0 0 18 18"><defs><style>.cls-1{fill:#fff;}.cls-2{fill:#0039a6;}.cls-3{fill:#d52b1e;}</style></defs><title>ru</title><path class="cls-1" d="M17.48,6H.52A8.99251,8.99251,0,0,1,17.48,6Z"/><path class="cls-2" d="M18,9a9.0415,9.0415,0,0,1-.51,3H.51A9.0415,9.0415,0,0,1,0,9,8.79869,8.79869,0,0,1,.52,6H17.48A8.79869,8.79869,0,0,1,18,9Z"/><path class="cls-3" d="M17.49,12a8.95653,8.95653,0,0,1-2.99,4.11,8.86547,8.86547,0,0,1-4.95,1.87c-.18.01-.36.02-.55.02s-.37-.01-.55-.02A8.86547,8.86547,0,0,1,3.5,16.11,8.95653,8.95653,0,0,1,.51,12Z"/></svg>