<svg xmlns="http://www.w3.org/2000/svg" viewBox="0 0 18 18"><defs><style>.cls-1{fill:#fdcd2a;}.cls-2{fill:#e5ae13;}.cls-3{fill:#fff768;}</style></defs><circle class="cls-1" cx="9" cy="9" r="9"/><path class="cls-2" d="M9,17.57143A8.99816,8.99816,0,0,1,.00541,8.78571C.00374,8.85718,0,8.92813,0,9A9,9,0,0,0,18,9c0-.07187-.00374-.14282-.00541-.21429A8.99816,8.99816,0,0,1,9,17.57143Z"/><path class="cls-3" d="M.01578,9A8.99416,8.99416,0,0,1,17.98422,9c.00335-.07144.00868-.14238.01037-.21424a8.99707,8.99707,0,0,0-17.98918,0C.0071,8.85762.01243,8.92856.01578,9Z"/></svg>